<svg xmlns="http://www.w3.org/2000/svg" version="1.1" xmlns:xlink="http://www.w3.org/1999/xlink" xmlns:svgjs="http://svgjs.dev/svgjs" width="1920" height="1080" preserveAspectRatio="none" viewBox="0 0 1920 1080"><g mask="url(&quot;#SvgjsMask2822&quot;)" fill="none"><rect width="1920" height="1080" x="0" y="0" fill="rgba(252, 197, 143, 1)"></rect><path d="M2016 1080L0 1080 L0 393.66Q-33.16 264.5, 96 231.34Q181.09 220.44, 192 305.53Q246.09 199.62, 352 253.7Q394.03 199.73, 448 241.76Q510.47 208.23, 544 270.69Q597.67 164.36, 704 218.03Q771.1 189.13, 800 256.22Q904.66 200.88, 960 305.55Q1088.31 273.86, 1120 402.17Q1159.45 345.63, 1216 385.08Q1222.08 295.15, 1312 301.23Q1340.22 233.45, 1408 261.66Q1529.05 222.71, 1568 343.76Q1590.03 269.79, 1664 291.82Q1709.54 177.36, 1824 222.9Q1893.82 196.72, 1920 266.54Q2035.63 286.17, 2016 401.79z" fill="rgba(239, 192, 148, 1)"></path><path d="M2080 1080L0 1080 L0 383.06Q105.44 328.5, 160 433.94Q199.45 377.39, 256 416.85Q377.36 378.21, 416 499.57Q470.95 458.52, 512 513.48Q573.97 415.45, 672 477.42Q698.29 407.71, 768 434Q783.25 353.25, 864 368.5Q965.18 373.69, 960 474.87Q1067.74 422.61, 1120 530.34Q1132.07 446.41, 1216 458.48Q1301.88 384.36, 1376 470.24Q1439.22 437.47, 1472 500.69Q1538.27 470.96, 1568 537.23Q1606.42 415.65, 1728 454.08Q1770.56 400.63, 1824 443.19Q1908.04 431.23, 1920 515.27Q2019.9 455.17, 2080 555.07z" fill="rgba(239, 200, 162, 1)"></path><path d="M1952 1080L0 1080 L0 510.44Q153.73 504.17, 160 657.9Q165.34 567.24, 256 572.57Q275.69 496.26, 352 515.94Q406.12 474.06, 448 528.17Q540.19 524.36, 544 616.55Q636.48 549.02, 704 641.5Q704.25 545.75, 800 545.99Q831.13 481.12, 896 512.24Q969.5 489.74, 992 563.23Q1071.87 547.1, 1088 626.97Q1113.03 556, 1184 581.04Q1295.45 532.5, 1344 643.95Q1447.87 587.82, 1504 691.69Q1508.58 600.27, 1600 604.84Q1614.73 523.57, 1696 538.29Q1762.13 444.42, 1856 510.55Q1927.27 485.82, 1952 557.08z" fill="rgba(237, 206, 176, 1)"></path><path d="M1984 1080L0 1080 L0 667.61Q162.75 670.36, 160 833.11Q143.63 720.74, 256 704.36Q319.19 607.55, 416 670.73Q488.44 583.17, 576 655.61Q661.01 644.62, 672 729.63Q694.89 656.52, 768 679.42Q864.4 615.82, 928 712.21Q1010.08 698.29, 1024 780.37Q1055.89 716.26, 1120 748.15Q1145.84 677.99, 1216 703.83Q1280.42 608.25, 1376 672.68Q1456.26 656.94, 1472 737.21Q1539.5 708.71, 1568 776.21Q1599.66 647.87, 1728 679.53Q1816.74 608.27, 1888 697.01Q1951.4 664.41, 1984 727.81z" fill="rgba(237, 211, 187, 1)"></path><path d="M1984 1080L0 1080 L0 943.87Q2.25 850.13, 96 852.38Q164.14 760.52, 256 828.67Q394.69 807.36, 416 946.04Q432.38 866.42, 512 882.8Q579.55 790.35, 672 857.9Q739.77 829.67, 768 897.45Q810.34 843.79, 864 886.13Q898.74 824.87, 960 859.6Q995.15 798.75, 1056 833.9Q1084.42 766.32, 1152 794.73Q1209.12 755.85, 1248 812.96Q1392.79 797.75, 1408 942.55Q1509.67 884.22, 1568 985.9Q1601.19 923.09, 1664 956.28Q1698.61 830.89, 1824 865.5Q1874.55 756.05, 1984 806.6z" fill="rgba(241, 224, 208, 1)"></path><path d="M1952 1080L0 1080 L0 976.52Q62.88 879.4, 160 942.28Q217.84 904.12, 256 961.96Q310.82 920.78, 352 975.6Q454.27 917.87, 512 1020.14Q551.11 963.25, 608 1002.36Q640.54 938.9, 704 971.44Q778.89 886.33, 864 961.22Q1010.78 948, 1024 1094.78Q1120.3 1031.08, 1184 1127.38Q1204.16 987.54, 1344 1007.7Q1402.31 970.01, 1440 1028.33Q1525.58 1017.9, 1536 1103.48Q1543.71 951.19, 1696 958.9Q1769.97 872.87, 1856 946.83Q1948.19 943.03, 1952 1035.22z" fill="rgba(255, 244, 232, 1)"></path></g><defs><mask id="SvgjsMask2822"><rect width="1920" height="1080" fill="#ffffff"></rect></mask></defs></svg>